# xmcd
# 
# Track frame offsets:
#     150
#     17111
#     32509
#     50117
#     68755
#     87386
#     103971
#     122565
#     137240
#     152469
# 
# Disc length: 2541
# 
# Revision: 1
# Processed by: cddbd v1.5.2PL0 Copyright (c) Steve Scherf et al.
# Submitted via: fre:ac v1.0.31
# 
DISCID=8409eb0a
DTITLE=Various Artist - Xatar - Alles Oder Nix
DYEAR=2008
DGENRE=Hip-Hop
TTITLE0=Xatar feat. Jetsett Mehmet - Intro
TTITLE1=Xatar feat. SSIO - Alles Oder Nix
TTITLE2=Xatar feat. Jamila - Meine Zeit
TTITLE3=Xatar feat. Azad - Baba Aller Babas
TTITLE4=Xatar feat. Samy - Ich Will Hier Nicht Weg
TTITLE5=Xatar feat. SSIO - Ich Will Alles
TTITLE6=Xatar feat. SSIO - Die Welt Gehört Dir
TTITLE7=Xatar feat. SSIO - Von Siedlung Zu Siedlung
TTITLE8=Xatar feat. Jalaal, Samy - Knastbrief
TTITLE9=Xatar feat. Samy - Kanaken
EXTD=
EXTT0=
EXTT1=
EXTT2=
EXTT3=
EXTT4=
EXTT5=
EXTT6=
EXTT7=
EXTT8=
EXTT9=
PLAYORDER=
